<svg width="225" height="225" version="1.1" xmlns="http://www.w3.org/2000/svg" desc="Created with imagetracer.js version 1.2.6" ><path fill="rgb(0,0,0)" stroke="rgb(0,0,0)" stroke-width="1" opacity="0" d="M 0 0 L 225 0 L 225 225 L 0 225 L 0 0 Z M 127 24 L 128 29 Q 128 38 124 44 L 102 62 Q 103 64 101 63 L 92 75 Q 93 87 101 92 Q 100 95 103 94 L 107 100 L 111 101 L 112 102 Q 113 98 110 99 L 101 83 Q 100 74 104 72 L 118 59 L 128 49 L 132 38 Q 133 29 129 26 Q 130 23 127 24 Z M 143 53 L 121 64 L 115 71 Q 111 72 114 74 L 112 79 L 112 83 L 122 98 L 122 101 L 118 107 L 119 109 L 124 105 L 130 98 L 130 92 L 122 79 Q 121 73 124 71 L 143 56 L 146 56 Q 148 52 143 53 Z M 153 101 L 148 104 L 159 105 L 162 110 Q 162 116 159 119 L 148 127 L 146 130 L 162 123 L 169 114 L 168 108 L 160 101 L 153 101 Z M 91 102 L 87 104 L 82 104 L 76 106 L 68 111 L 69 113 L 80 115 L 90 115 L 91 116 L 121 115 L 122 114 L 137 113 L 142 111 L 144 108 L 131 109 L 130 110 L 119 110 L 118 111 L 107 111 L 106 112 L 101 111 L 86 111 L 83 110 Q 79 111 80 108 L 94 104 L 91 102 Z M 86 119 L 83 121 L 80 126 L 83 128 L 96 131 L 122 131 L 137 128 L 138 127 L 133 122 L 126 124 L 113 124 L 112 125 Q 96 127 88 123 Q 90 118 86 119 Z M 90 135 L 88 136 Q 84 137 85 142 L 96 146 L 103 146 L 106 147 L 123 146 L 135 143 L 136 142 L 129 137 L 121 139 L 96 139 L 95 138 Q 90 139 92 135 L 90 135 Z M 74 145 L 62 148 L 56 153 L 57 156 L 68 159 L 91 160 L 92 161 L 96 160 Q 100 159 102 161 L 139 159 L 156 155 L 160 152 L 162 152 L 162 147 Q 158 146 159 150 L 151 153 L 137 154 L 135 154 L 134 155 L 119 155 L 118 156 L 91 156 L 90 155 L 80 155 L 69 153 L 67 151 L 74 147 Q 78 148 80 146 L 74 145 Z M 167 154 L 162 158 L 159 158 L 153 161 L 143 163 L 135 163 L 134 164 L 113 165 L 110 164 L 107 165 Q 99 163 88 164 L 87 163 L 78 164 L 85 166 L 100 167 L 103 168 L 125 168 L 126 167 L 146 166 L 158 163 L 167 158 L 169 155 L 167 154 Z M 74 168 L 70 169 L 70 205 L 68 208 Q 69 210 67 209 Q 61 212 68 215 L 74 212 L 77 205 L 77 169 L 74 168 Z M 144 177 L 134 180 L 135 184 L 143 182 L 147 183 L 149 189 Q 141 188 137 191 L 133 195 L 132 199 L 134 204 L 139 206 L 148 205 L 150 204 L 150 205 L 155 205 L 156 203 L 155 202 L 155 183 L 153 179 L 144 177 Z M 157 177 L 155 179 L 157 181 Q 163 183 161 178 L 157 177 Z M 85 178 L 82 181 L 84 184 Q 87 182 95 183 Q 97 183 97 188 L 96 189 L 88 189 L 82 192 L 80 197 L 82 204 L 87 206 Q 95 207 98 203 L 98 205 L 103 206 L 104 204 L 103 203 L 103 183 L 99 178 L 87 178 L 85 178 Z M 106 178 L 113 202 L 113 204 L 116 206 L 123 205 L 127 196 L 131 181 L 131 178 L 124 178 L 124 183 L 120 197 L 113 180 L 113 178 L 106 178 Z " /><path fill="rgb(0,0,0)" stroke="rgb(0,0,0)" stroke-width="1" opacity="0" d="M 92.5 193 Q 99.3 190.8 97 197.5 Q 95.7 201.7 89.5 201 Q 86.3 200.3 87 195.5 L 92.5 193 Z " /><path fill="rgb(0,0,0)" stroke="rgb(0,0,0)" stroke-width="1" opacity="0" d="M 142.5 193 L 149 193 L 149 198.5 Q 147 201.5 141.5 201 L 139 197.5 L 142.5 193 Z " /><path fill="rgb(24,131,183)" stroke="rgb(24,131,183)" stroke-width="1" opacity="0.7490196078431373" d="M 152.5 101 L 159.5 101 L 168 107.5 L 169 113.5 L 161.5 123 L 146.5 130 L 146 128.5 L 159 118.5 Q 162 115.5 162 109.5 L 158.5 105 L 148 103.5 L 152.5 101 Z " /><path fill="rgb(24,131,183)" stroke="rgb(24,131,183)" stroke-width="1" opacity="0.7490196078431373" d="M 87.5 103 L 93 103.5 L 80 108 Q 78.8 111 82.5 110 L 85.5 111 L 100.5 111 L 105.5 112 L 106.5 111 L 117.5 111 L 118.5 110 L 129.5 110 L 130.5 109 L 143.5 108 L 141.5 111 L 136.5 113 L 121.5 114 L 120.5 115 L 90.5 116 L 89.5 115 L 79.5 115 L 69 113 L 68 110.5 L 75.5 106 L 87.5 103 Z " /><path fill="rgb(24,131,183)" stroke="rgb(24,131,183)" stroke-width="1" opacity="0.7490196078431373" d="M 85.5 119 Q 89.7 117.7 88 122.5 Q 96.5 127 111.5 125 L 112.5 124 L 125.5 124 L 132.5 122 L 138 126.5 L 136.5 128 L 121.5 131 L 95.5 131 L 82.5 128 L 80 125.5 L 82.5 121 L 85.5 119 Z " /><path fill="rgb(24,131,183)" stroke="rgb(24,131,183)" stroke-width="1" opacity="0.7490196078431373" d="M 89.5 135 L 92 135 Q 90.3 139.1 94.5 138 L 95.5 139 L 120.5 139 L 128.5 137 L 136 141.5 L 134.5 143 L 122.5 146 L 105.5 147 L 102.5 146 L 95.5 146 L 85 142 Q 84 137.3 87.5 136 L 89.5 135 Z " /><path fill="rgb(24,131,183)" stroke="rgb(24,131,183)" stroke-width="1" opacity="0.7490196078431373" d="M 73.5 145 L 79 145.5 L 67 150.5 L 68.5 153 L 79.5 155 L 89.5 155 L 90.5 156 L 117.5 156 L 118.5 155 L 133.5 155 L 134.5 154 L 136.5 154 L 150.5 153 L 159 150 Q 157.5 146.3 160.5 147 Q 163 148.2 162 152 L 152.5 156 L 138.5 159 L 101.5 161 Q 100.3 158.8 95.5 160 L 91.5 161 L 90.5 160 L 67.5 159 L 57 156 L 56 152.5 L 61.5 148 L 73.5 145 Z " /><path fill="rgb(24,131,183)" stroke="rgb(24,131,183)" stroke-width="1" opacity="0.7490196078431373" d="M 166.5 154 L 169 154.5 L 166.5 158 L 157.5 163 L 145.5 166 L 125.5 167 L 124.5 168 L 102.5 168 L 99.5 167 L 84.5 166 L 79 163.5 L 86.5 163 L 87.5 164 Q 99 162.5 106.5 165 L 109.5 164 L 112.5 165 L 133.5 164 L 134.5 163 L 142.5 163 L 152.5 161 L 158.5 158 L 161.5 158 L 166.5 154 Z " /><path fill="rgb(241,7,9)" stroke="rgb(241,7,9)" stroke-width="1" opacity="0.996078431372549" d="M 129.5 27 Q 131.9 31.1 131 38.5 Q 127.8 51.8 117.5 58 L 103 71.5 L 100 77.5 L 100 82.5 L 110 99.5 L 106 96.5 L 104 93.5 Q 93.7 88.3 93 73.5 L 102.5 62 L 124 44.5 Q 129.5 38.5 129.5 27 Z " /><path fill="rgb(241,7,9)" stroke="rgb(241,7,9)" stroke-width="1" opacity="0.996078431372549" d="M 141.5 55 L 143 55.5 Q 131.1 61.1 123 70.5 L 121 77.5 L 129 90.5 L 129 97.5 L 123.5 104 L 119.5 107 L 121 104.5 L 123 97.5 L 114 84.5 L 113 76.5 L 118.5 67 Q 128 59 141.5 55 Z " /><path fill="rgb(241,7,9)" stroke="rgb(241,7,9)" stroke-width="1" opacity="0.996078431372549" d="M 71 170 L 76 170.5 L 76 205.5 L 70.5 213 L 67.5 214 L 65.5 211 L 69 208.5 L 71 204.5 L 71 170 Z " /><path fill="rgb(241,7,9)" stroke="rgb(241,7,9)" stroke-width="1" opacity="0.996078431372549" d="M 91.5 178 L 98.5 179 L 102 182.5 L 102 202.5 L 103 203.5 L 99.5 205 L 97.5 202 Q 94.7 206.7 85.5 205 L 82 202.5 L 81 196.5 L 85.5 191 Q 88.7 188.7 95.5 190 L 97 188.5 Q 98 183 94.5 182 Q 86.8 181.2 83 183 Q 81.5 179.2 84.5 180 L 91.5 178 Z M 94 192 L 87 194 L 86 197 Q 85 201 90 202 Q 96 203 97 199 L 97 192 L 94 192 Z " /><path fill="rgb(241,7,9)" stroke="rgb(241,7,9)" stroke-width="1" opacity="0.996078431372549" d="M 143.5 178 L 150.5 179 L 154 182.5 L 155 184.5 L 155 205 L 151 205 L 151 203.5 Q 149.3 200.3 147.5 204 Q 144.3 206.3 137.5 205 L 134 202.5 L 133 197.5 L 136.5 192 L 140.5 190 Q 147.3 190.9 150 189 Q 150.1 184.1 146.5 182 Q 138.8 181.2 135 183 Q 133.3 178.9 137.5 180 L 143.5 178 Z M 145 192 L 139 196 Q 138 201 142 202 L 149 200 Q 151 199 150 194 Q 149 191 145 192 Z " /><path fill="rgb(241,7,9)" stroke="rgb(241,7,9)" stroke-width="1" opacity="0.996078431372549" d="M 107 179 Q 111.6 177.8 113 180.5 L 118 197.5 L 119.5 199 L 125 179 L 130 179 L 130 181.5 L 122 205 L 115.5 205 L 115 203.5 L 107 179 Z " /><path fill="rgb(197,37,39)" stroke="rgb(197,37,39)" stroke-width="1" opacity="0.3411764705882353" d="M 127 24 Q 129.7 22.9 129 25.5 L 129 27.5 Q 129.8 35.8 126.5 40 L 126 38.5 Q 128.7 35.2 128 28.5 L 127 24 Z " /><path fill="rgb(197,37,39)" stroke="rgb(197,37,39)" stroke-width="1" opacity="0.3411764705882353" d="M 130.5 28 Q 132.9 31.1 132 37.5 L 131 37.5 L 130.5 28 Z " /><path fill="rgb(197,37,39)" stroke="rgb(197,37,39)" stroke-width="1" opacity="0.3411764705882353" d="M 130.5 39 L 131 42.5 Q 126.8 53.3 117.5 59 L 104 71.5 L 102.5 74 L 103 72.5 L 116.5 58 L 127 48.5 L 130.5 39 Z " /><path fill="rgb(197,37,39)" stroke="rgb(197,37,39)" stroke-width="1" opacity="0.3411764705882353" d="M 125.5 41 L 124.5 43 L 125.5 41 Z " /><path fill="rgb(197,37,39)" stroke="rgb(197,37,39)" stroke-width="1" opacity="0.3411764705882353" d="M 123.5 44 L 117.5 51 L 108.5 58 L 111.5 54 L 123.5 44 Z " /><path fill="rgb(197,37,39)" stroke="rgb(197,37,39)" stroke-width="1" opacity="0.3411764705882353" d="M 142.5 53 Q 147.8 51.5 146 56 L 141.5 55 L 140.5 58 Q 130.6 62.6 124 70.5 L 121.5 78 L 121 74.5 L 129.5 64 L 141 56.5 L 139 55.5 L 142.5 53 Z " /><path fill="rgb(197,37,39)" stroke="rgb(197,37,39)" stroke-width="1" opacity="0.3411764705882353" d="M 135.5 56 L 138 56.5 Q 125.4 60.4 117 68.5 L 115 73 L 113 72.5 L 120.5 64 L 135.5 56 Z " /><path fill="rgb(197,37,39)" stroke="rgb(197,37,39)" stroke-width="1" opacity="0.3411764705882353" d="M 106.5 58 L 103.5 62 L 102 61.5 L 106.5 58 Z " /><path fill="rgb(197,37,39)" stroke="rgb(197,37,39)" stroke-width="1" opacity="0.3411764705882353" d="M 100.5 63 L 96.5 68 L 100.5 63 Z " /><path fill="rgb(197,37,39)" stroke="rgb(197,37,39)" stroke-width="1" opacity="0.3411764705882353" d="M 95.5 69 L 94 71.5 L 93.5 73 L 93 71.5 L 95.5 69 Z " /><path fill="rgb(197,37,39)" stroke="rgb(197,37,39)" stroke-width="1" opacity="0.3411764705882353" d="M 92.5 74 Q 92.3 80.3 95 83.5 L 104 95 Q 106.7 96.1 106 93.5 Q 100 88.5 100 77.5 L 101 77.5 L 102 85.5 L 110 99 Q 113 97.8 112 101.5 L 112.5 103 L 107 99.5 L 102.5 94 Q 99.9 94.8 101 91.5 Q 95.1 86.9 92 79.5 L 92.5 74 Z M 107 95 L 106 97 L 108 98 L 107 95 Z " /><path fill="rgb(197,37,39)" stroke="rgb(197,37,39)" stroke-width="1" opacity="0.3411764705882353" d="M 112.5 78 L 114 83.5 L 112 82.5 L 112.5 78 Z " /><path fill="rgb(197,37,39)" stroke="rgb(197,37,39)" stroke-width="1" opacity="0.3411764705882353" d="M 122.5 79 L 128 87.5 L 126 86.5 L 122 80.5 L 122.5 79 Z " /><path fill="rgb(197,37,39)" stroke="rgb(197,37,39)" stroke-width="1" opacity="0.3411764705882353" d="M 115.5 87 L 120 92.5 L 117 90.5 L 115.5 87 Z " /><path fill="rgb(197,37,39)" stroke="rgb(197,37,39)" stroke-width="1" opacity="0.3411764705882353" d="M 129.5 91 L 130 97.5 L 123.5 105 L 118.5 109 L 118 106.5 L 122 100.5 L 122 97.5 L 120 94.5 L 122 95.5 L 123 100.5 L 121 104.5 L 122.5 104 L 127 100.5 Q 130.2 97.7 129.5 91 Z " /><path fill="rgb(197,37,39)" stroke="rgb(197,37,39)" stroke-width="1" opacity="0.3411764705882353" d="M 73.5 168 L 77 168.5 L 77 204.5 L 76 204.5 L 76 170.5 L 71 170 L 71 204.5 L 66.5 211 L 65 211.5 L 68.5 214 L 74.5 209 L 75 210.5 L 67.5 215 Q 61 212 66.5 209 Q 68.8 209.8 68 207.5 L 70 204.5 L 70 169 L 73.5 168 Z " /><path fill="rgb(197,37,39)" stroke="rgb(197,37,39)" stroke-width="1" opacity="0.3411764705882353" d="M 143.5 177 L 146 177.5 L 139.5 179 L 139.5 178 L 143.5 177 Z " /><path fill="rgb(197,37,39)" stroke="rgb(197,37,39)" stroke-width="1" opacity="0.3411764705882353" d="M 156.5 177 L 161 178 Q 162.8 182.9 156.5 181 L 155 178.5 L 156.5 177 Z " /><path fill="rgb(197,37,39)" stroke="rgb(197,37,39)" stroke-width="1" opacity="0.3411764705882353" d="M 84.5 178 L 85 180 Q 81.7 178.9 83 183 L 85 183.5 L 83.5 184 L 82 180.5 L 84.5 178 Z " /><path fill="rgb(197,37,39)" stroke="rgb(197,37,39)" stroke-width="1" opacity="0.3411764705882353" d="M 86.5 178 L 91 178.5 L 86.5 179 L 86.5 178 Z " /><path fill="rgb(197,37,39)" stroke="rgb(197,37,39)" stroke-width="1" opacity="0.3411764705882353" d="M 95.5 178 L 98.5 178 L 103 182.5 L 103 202.5 L 104 203.5 L 103 206 L 101 205.5 Q 104.5 204 102 202.5 L 102 182.5 L 98.5 179 Q 94.5 179.8 95.5 178 Z " /><path fill="rgb(197,37,39)" stroke="rgb(197,37,39)" stroke-width="1" opacity="0.3411764705882353" d="M 106 178 L 112.5 178 L 113 179.5 L 115 185.5 L 114 185.5 L 111.5 179 Q 106.1 177.1 107 180.5 L 106 180.5 L 106 178 Z " /><path fill="rgb(197,37,39)" stroke="rgb(197,37,39)" stroke-width="1" opacity="0.3411764705882353" d="M 124 178 L 131 178 L 131 180.5 L 130 180.5 L 130 179 L 125 179 L 124.5 182 L 124 178 Z " /><path fill="rgb(197,37,39)" stroke="rgb(197,37,39)" stroke-width="1" opacity="0.3411764705882353" d="M 147.5 178 L 150 178.5 L 147.5 179 L 147.5 178 Z " /><path fill="rgb(197,37,39)" stroke="rgb(197,37,39)" stroke-width="1" opacity="0.3411764705882353" d="M 151.5 179 Q 153.8 178.3 153 180.5 L 155 183.5 L 154 183.5 L 151.5 179 Z " /><path fill="rgb(197,37,39)" stroke="rgb(197,37,39)" stroke-width="1" opacity="0.3411764705882353" d="M 86.5 182 Q 95 180 97 184.5 L 94.5 183 L 86.5 183 L 86.5 182 Z " /><path fill="rgb(197,37,39)" stroke="rgb(197,37,39)" stroke-width="1" opacity="0.3411764705882353" d="M 129.5 182 L 130 184.5 L 129 184.5 L 129.5 182 Z " /><path fill="rgb(197,37,39)" stroke="rgb(197,37,39)" stroke-width="1" opacity="0.3411764705882353" d="M 138.5 182 L 142 182.5 L 135.5 184 L 135.5 183 L 138.5 182 Z " /><path fill="rgb(197,37,39)" stroke="rgb(197,37,39)" stroke-width="1" opacity="0.3411764705882353" d="M 145.5 182 L 149 184.5 L 150 188.5 L 149 188.5 L 146.5 183 L 145.5 182 Z " /><path fill="rgb(197,37,39)" stroke="rgb(197,37,39)" stroke-width="1" opacity="0.3411764705882353" d="M 123.5 183 L 124 185.5 L 123 185.5 L 123.5 183 Z " /><path fill="rgb(197,37,39)" stroke="rgb(197,37,39)" stroke-width="1" opacity="0.3411764705882353" d="M 128.5 186 L 129 188.5 L 128 188.5 L 128.5 186 Z " /><path fill="rgb(197,37,39)" stroke="rgb(197,37,39)" stroke-width="1" opacity="0.3411764705882353" d="M 122.5 187 L 123 189.5 L 122 189.5 L 122.5 187 Z " /><path fill="rgb(197,37,39)" stroke="rgb(197,37,39)" stroke-width="1" opacity="0.3411764705882353" d="M 96.5 188 L 95.5 190 Q 84.7 188.2 82 194.5 L 80.5 198 L 80 196.5 L 82 192 L 87.5 189 L 95.5 189 L 96.5 188 Z " /><path fill="rgb(197,37,39)" stroke="rgb(197,37,39)" stroke-width="1" opacity="0.3411764705882353" d="M 109.5 188 L 111 192.5 L 110 192.5 L 109.5 188 Z " /><path fill="rgb(197,37,39)" stroke="rgb(197,37,39)" stroke-width="1" opacity="0.3411764705882353" d="M 140.5 189 L 148 189.5 Q 137.7 188.7 134 194.5 L 133.5 197 L 133 194.5 L 140.5 189 Z " /><path fill="rgb(197,37,39)" stroke="rgb(197,37,39)" stroke-width="1" opacity="0.3411764705882353" d="M 127.5 190 L 128 192.5 L 125.5 198 L 125 196.5 L 127.5 190 Z " /><path fill="rgb(197,37,39)" stroke="rgb(197,37,39)" stroke-width="1" opacity="0.3411764705882353" d="M 93.5 192 L 97 192.5 L 93.5 193 L 93.5 192 Z " /><path fill="rgb(197,37,39)" stroke="rgb(197,37,39)" stroke-width="1" opacity="0.3411764705882353" d="M 144.5 192 Q 149 191 150 193.5 Q 151.3 198.8 148.5 200 L 149 198.5 Q 151.7 190.7 144.5 193 L 144.5 192 Z " /><path fill="rgb(197,37,39)" stroke="rgb(197,37,39)" stroke-width="1" opacity="0.3411764705882353" d="M 89.5 193 L 92 193.5 L 89.5 194 L 89.5 193 Z " /><path fill="rgb(197,37,39)" stroke="rgb(197,37,39)" stroke-width="1" opacity="0.3411764705882353" d="M 141.5 193 L 140 195.5 L 139.5 197 L 139 195.5 L 141.5 193 Z " /><path fill="rgb(197,37,39)" stroke="rgb(197,37,39)" stroke-width="1" opacity="0.3411764705882353" d="M 86.5 196 L 89.5 201 Q 95.1 201.6 96.5 198 L 94.5 201 L 89.5 202 Q 84.7 200.7 86.5 196 Z " /><path fill="rgb(197,37,39)" stroke="rgb(197,37,39)" stroke-width="1" opacity="0.3411764705882353" d="M 118.5 196 L 120 198.5 L 118 197.5 L 118.5 196 Z " /><path fill="rgb(197,37,39)" stroke="rgb(197,37,39)" stroke-width="1" opacity="0.3411764705882353" d="M 124.5 199 L 125 200.5 L 122.5 205 L 122 203.5 L 124.5 199 Z " /><path fill="rgb(197,37,39)" stroke="rgb(197,37,39)" stroke-width="1" opacity="0.3411764705882353" d="M 139.5 199 Q 140.3 201.7 144.5 201 L 146.5 200 L 146.5 201 L 141.5 202 L 139.5 199 Z " /><path fill="rgb(197,37,39)" stroke="rgb(197,37,39)" stroke-width="1" opacity="0.3411764705882353" d="M 97.5 202 L 95.5 205 L 94 204.5 L 97.5 202 Z " /><path fill="rgb(197,37,39)" stroke="rgb(197,37,39)" stroke-width="1" opacity="0.3411764705882353" d="M 149.5 202 L 151 204.5 L 150 204.5 L 149.5 203 L 146.5 205 L 146.5 204 L 149.5 202 Z " /><path fill="rgb(197,37,39)" stroke="rgb(197,37,39)" stroke-width="1" opacity="0.3411764705882353" d="M 82.5 203 L 85 204.5 L 83.5 205 L 82.5 203 Z " /><path fill="rgb(197,37,39)" stroke="rgb(197,37,39)" stroke-width="1" opacity="0.3411764705882353" d="M 113.5 203 Q 116.1 202.3 115 205 L 117.5 205 L 117.5 206 Q 112.8 206.5 113.5 203 Z " /><path fill="rgb(197,37,39)" stroke="rgb(197,37,39)" stroke-width="1" opacity="0.3411764705882353" d="M 134.5 203 L 137 204.5 L 135.5 205 L 134.5 203 Z " /><path fill="rgb(197,37,39)" stroke="rgb(197,37,39)" stroke-width="1" opacity="0.3411764705882353" d="M 86.5 205 L 93 205.5 L 86.5 206 L 86.5 205 Z " /><path fill="rgb(197,37,39)" stroke="rgb(197,37,39)" stroke-width="1" opacity="0.3411764705882353" d="M 138.5 205 L 145 205.5 L 138.5 206 L 138.5 205 Z " /></svg>